<?xml version="1.0" standalone="no"?>
<!DOCTYPE svg PUBLIC "-//W3C//DTD SVG 20010904//EN"
 "http://www.w3.org/TR/2001/REC-SVG-20010904/DTD/svg10.dtd">
<svg version="1.0" xmlns="http://www.w3.org/2000/svg"
 width="225.000000pt" height="225.000000pt" viewBox="0 0 225.000000 225.000000"
 preserveAspectRatio="xMidYMid meet">
<metadata>
Created by potrace 1.15, written by Peter Selinger 2001-2017
</metadata>
<g transform="translate(0.000000,225.000000) scale(0.100000,-0.100000)"
fill="#000000" stroke="none">
<path d="M50 2067 c-50 -25 -63 -106 -23 -139 11 -9 65 -15 176 -18 l160 -5
119 -555 119 -554 -40 -86 c-23 -47 -41 -96 -41 -108 0 -38 52 -82 97 -82 l38
-1 -30 -16 c-94 -49 -130 -142 -89 -229 53 -111 193 -132 280 -43 38 39 39 42
39 112 0 86 -21 123 -87 156 l-43 21 570 0 570 0 -40 -23 c-97 -55 -122 -175
-54 -261 48 -61 155 -79 223 -37 112 70 106 238 -11 300 l-38 20 37 1 c84 1
125 94 64 146 l-27 24 -636 0 c-601 0 -635 1 -628 18 25 61 27 75 17 115 -7
25 -7 44 -2 47 5 3 327 43 716 89 389 45 715 88 725 94 36 23 39 50 39 418 0
378 -3 407 -45 423 -9 3 -387 6 -841 6 l-824 0 -5 28 c-32 153 -31 152 -275
152 -129 0 -193 -4 -210 -13z"/>
</g>
</svg>
