<?xml version="1.0" standalone="no"?>
<!DOCTYPE svg PUBLIC "-//W3C//DTD SVG 20010904//EN"
 "http://www.w3.org/TR/2001/REC-SVG-20010904/DTD/svg10.dtd">
<svg version="1.0" xmlns="http://www.w3.org/2000/svg"
 width="225.000000pt" height="225.000000pt" viewBox="0 0 225.000000 225.000000"
 preserveAspectRatio="xMidYMid meet">
<metadata>
Created by potrace 1.15, written by Peter Selinger 2001-2017
</metadata>
<g transform="translate(0.000000,225.000000) scale(0.100000,-0.100000)"
fill="#000000" stroke="none">
<path d="M652 2240 c-301 -55 -546 -280 -628 -580 -25 -90 -25 -300 0 -389 41
-149 113 -268 228 -376 126 -119 263 -183 439 -207 171 -23 370 23 515 118
l68 45 94 -94 c84 -84 93 -97 83 -115 -30 -56 -26 -61 271 -359 183 -183 290
-283 303 -283 20 0 225 195 225 215 0 6 -130 140 -288 298 -268 267 -290 287
-323 287 -19 0 -40 -5 -47 -12 -10 -10 -32 8 -107 82 l-94 95 49 74 c98 148
144 341 122 516 -22 177 -87 316 -207 443 -107 114 -228 188 -370 226 -72 20
-260 29 -333 16z m243 -165 c230 -41 431 -228 490 -455 24 -93 22 -237 -6
-325 -33 -111 -77 -183 -160 -266 -122 -124 -263 -181 -443 -181 -167 1 -304
59 -427 182 -59 58 -86 95 -118 160 -89 180 -89 365 -2 547 82 171 257 304
443 338 95 17 127 17 223 0z"/>
</g>
</svg>
